<svg width="12" height="24" viewBox="0 0 12 24" fill="none" xmlns="http://www.w3.org/2000/svg">
<path d="M5.3627 12.0154L0.264292 3.82651C-0.0880975 3.26051 -0.0880975 2.34528 0.264292 1.7853L1.11153 0.424499C1.46392 -0.1415 2.03374 -0.1415 2.38238 0.424499L5.99625 6.22899L9.61012 0.424499C9.96251 -0.1415 10.5323 -0.1415 10.881 0.424499L11.7357 1.77928C12.0881 2.34528 12.0881 3.26051 11.7357 3.82049L6.6373 12.0094C6.28491 12.5814 5.71509 12.5814 5.3627 12.0154ZM6.6373 23.5762L11.7357 15.3873C12.0881 14.8213 12.0881 13.9061 11.7357 13.3461L10.8885 11.9853C10.5361 11.4193 9.96626 11.4193 9.61762 11.9853L6 17.7838L2.38613 11.9793C2.03374 11.4133 1.46392 11.4133 1.11528 11.9793L0.264292 13.3401C-0.0880975 13.9061 -0.0880975 14.8213 0.264292 15.3813L5.3627 23.5702C5.71509 24.1422 6.28491 24.1422 6.6373 23.5762Z" fill="#444444"/>
</svg>
